%TF.GenerationSoftware,KiCad,Pcbnew,(6.0.7)*%
%TF.CreationDate,2022-09-01T16:07:51+12:00*%
%TF.ProjectId,custom_keyboard,63757374-6f6d-45f6-9b65-79626f617264,rev?*%
%TF.SameCoordinates,Original*%
%TF.FileFunction,Soldermask,Bot*%
%TF.FilePolarity,Negative*%
%FSLAX46Y46*%
G04 Gerber Fmt 4.6, Leading zero omitted, Abs format (unit mm)*
G04 Created by KiCad (PCBNEW (6.0.7)) date 2022-09-01 16:07:51*
%MOMM*%
%LPD*%
G01*
G04 APERTURE LIST*
G04 Aperture macros list*
%AMRoundRect*
0 Rectangle with rounded corners*
0 $1 Rounding radius*
0 $2 $3 $4 $5 $6 $7 $8 $9 X,Y pos of 4 corners*
0 Add a 4 corners polygon primitive as box body*
4,1,4,$2,$3,$4,$5,$6,$7,$8,$9,$2,$3,0*
0 Add four circle primitives for the rounded corners*
1,1,$1+$1,$2,$3*
1,1,$1+$1,$4,$5*
1,1,$1+$1,$6,$7*
1,1,$1+$1,$8,$9*
0 Add four rect primitives between the rounded corners*
20,1,$1+$1,$2,$3,$4,$5,0*
20,1,$1+$1,$4,$5,$6,$7,0*
20,1,$1+$1,$6,$7,$8,$9,0*
20,1,$1+$1,$8,$9,$2,$3,0*%
%AMFreePoly0*
4,1,22,0.550000,-0.750000,0.000000,-0.750000,0.000000,-0.745033,-0.079941,-0.743568,-0.215256,-0.701293,-0.333266,-0.622738,-0.424486,-0.514219,-0.481581,-0.384460,-0.499164,-0.250000,-0.500000,-0.250000,-0.500000,0.250000,-0.499164,0.250000,-0.499963,0.256109,-0.478152,0.396186,-0.417904,0.524511,-0.324060,0.630769,-0.204165,0.706417,-0.067858,0.745374,0.000000,0.744959,0.000000,0.750000,
0.550000,0.750000,0.550000,-0.750000,0.550000,-0.750000,$1*%
%AMFreePoly1*
4,1,20,0.000000,0.744959,0.073905,0.744508,0.209726,0.703889,0.328688,0.626782,0.421226,0.519385,0.479903,0.390333,0.500000,0.250000,0.500000,-0.250000,0.499851,-0.262216,0.476331,-0.402017,0.414519,-0.529596,0.319384,-0.634700,0.198574,-0.708877,0.061801,-0.746166,0.000000,-0.745033,0.000000,-0.750000,-0.550000,-0.750000,-0.550000,0.750000,0.000000,0.750000,0.000000,0.744959,
0.000000,0.744959,$1*%
G04 Aperture macros list end*
%ADD10C,4.000000*%
%ADD11C,3.050000*%
%ADD12C,1.700000*%
%ADD13C,2.200000*%
%ADD14R,1.700000X1.700000*%
%ADD15O,1.700000X1.700000*%
%ADD16C,2.000000*%
%ADD17R,3.200000X2.000000*%
%ADD18R,2.000000X2.000000*%
%ADD19R,2.000000X1.500000*%
%ADD20R,2.000000X3.800000*%
%ADD21RoundRect,0.075000X0.441942X0.548008X-0.548008X-0.441942X-0.441942X-0.548008X0.548008X0.441942X0*%
%ADD22RoundRect,0.075000X-0.441942X0.548008X-0.548008X0.441942X0.441942X-0.548008X0.548008X-0.441942X0*%
%ADD23RoundRect,0.250000X-0.250000X-0.475000X0.250000X-0.475000X0.250000X0.475000X-0.250000X0.475000X0*%
%ADD24RoundRect,0.250000X-0.475000X0.250000X-0.475000X-0.250000X0.475000X-0.250000X0.475000X0.250000X0*%
%ADD25RoundRect,0.250000X0.250000X0.475000X-0.250000X0.475000X-0.250000X-0.475000X0.250000X-0.475000X0*%
%ADD26RoundRect,0.250000X0.475000X-0.250000X0.475000X0.250000X-0.475000X0.250000X-0.475000X-0.250000X0*%
%ADD27R,0.900000X1.200000*%
%ADD28RoundRect,0.250000X0.375000X0.625000X-0.375000X0.625000X-0.375000X-0.625000X0.375000X-0.625000X0*%
%ADD29RoundRect,0.250000X-0.262500X-0.450000X0.262500X-0.450000X0.262500X0.450000X-0.262500X0.450000X0*%
%ADD30RoundRect,0.250000X0.262500X0.450000X-0.262500X0.450000X-0.262500X-0.450000X0.262500X-0.450000X0*%
%ADD31RoundRect,0.250000X-0.450000X0.262500X-0.450000X-0.262500X0.450000X-0.262500X0.450000X0.262500X0*%
%ADD32R,1.000000X0.750000*%
%ADD33R,0.700000X1.000000*%
%ADD34R,0.700000X0.600000*%
%ADD35C,0.650000*%
%ADD36R,0.600000X1.450000*%
%ADD37R,0.300000X1.450000*%
%ADD38R,1.200000X1.400000*%
%ADD39FreePoly0,270.000000*%
%ADD40R,1.500000X1.000000*%
%ADD41FreePoly1,270.000000*%
G04 APERTURE END LIST*
D10*
%TO.C,MX37*%
X219703750Y-191120000D03*
X119703750Y-191120000D03*
D11*
X119703750Y-175880000D03*
D12*
X174783750Y-182880000D03*
X164623750Y-182880000D03*
D10*
X169703750Y-182880000D03*
D11*
X219703750Y-175880000D03*
D13*
X172243750Y-177800000D03*
X165893750Y-180340000D03*
%TD*%
D10*
%TO.C,MX1*%
X60166250Y-163830000D03*
X48266250Y-172070000D03*
D11*
X72066250Y-156830000D03*
D12*
X55086250Y-163830000D03*
D11*
X48266250Y-156830000D03*
D10*
X72066250Y-172070000D03*
D12*
X65246250Y-163830000D03*
D13*
X62706250Y-158750000D03*
X56356250Y-161290000D03*
%TD*%
D10*
%TO.C,MX2*%
X50641250Y-182880000D03*
D12*
X55721250Y-182880000D03*
X45561250Y-182880000D03*
D13*
X53181250Y-177800000D03*
X46831250Y-180340000D03*
%TD*%
D12*
%TO.C,MX3*%
X47942500Y-125730000D03*
D10*
X53022500Y-125730000D03*
D12*
X58102500Y-125730000D03*
D13*
X55562500Y-120650000D03*
X49212500Y-123190000D03*
%TD*%
D12*
%TO.C,MX4*%
X60483750Y-144780000D03*
D10*
X55403750Y-144780000D03*
D12*
X50323750Y-144780000D03*
D13*
X57943750Y-139700000D03*
X51593750Y-142240000D03*
%TD*%
D12*
%TO.C,MX5*%
X53340000Y-106680000D03*
D10*
X48260000Y-106680000D03*
D12*
X43180000Y-106680000D03*
D13*
X50800000Y-101600000D03*
X44450000Y-104140000D03*
%TD*%
D10*
%TO.C,MX6*%
X48260000Y-87630000D03*
D12*
X53340000Y-87630000D03*
X43180000Y-87630000D03*
D13*
X50800000Y-82550000D03*
X44450000Y-85090000D03*
%TD*%
D12*
%TO.C,MX7*%
X79533750Y-182880000D03*
D10*
X74453750Y-182880000D03*
D12*
X69373750Y-182880000D03*
D13*
X76993750Y-177800000D03*
X70643750Y-180340000D03*
%TD*%
D10*
%TO.C,MX8*%
X67310000Y-106680000D03*
D12*
X72390000Y-106680000D03*
X62230000Y-106680000D03*
D13*
X69850000Y-101600000D03*
X63500000Y-104140000D03*
%TD*%
D10*
%TO.C,MX9*%
X76835000Y-125730000D03*
D12*
X81915000Y-125730000D03*
X71755000Y-125730000D03*
D13*
X79375000Y-120650000D03*
X73025000Y-123190000D03*
%TD*%
D12*
%TO.C,MX10*%
X76517500Y-144780000D03*
X86677500Y-144780000D03*
D10*
X81597500Y-144780000D03*
D13*
X84137500Y-139700000D03*
X77787500Y-142240000D03*
%TD*%
D12*
%TO.C,MX11*%
X91440000Y-87630000D03*
D10*
X86360000Y-87630000D03*
D12*
X81280000Y-87630000D03*
D13*
X88900000Y-82550000D03*
X82550000Y-85090000D03*
%TD*%
D10*
%TO.C,MX12*%
X98266250Y-182880000D03*
D12*
X93186250Y-182880000D03*
X103346250Y-182880000D03*
D13*
X100806250Y-177800000D03*
X94456250Y-180340000D03*
%TD*%
D12*
%TO.C,MX13*%
X96202500Y-163830000D03*
X86042500Y-163830000D03*
D10*
X91122500Y-163830000D03*
D13*
X93662500Y-158750000D03*
X87312500Y-161290000D03*
%TD*%
D12*
%TO.C,MX14*%
X91440000Y-106680000D03*
X81280000Y-106680000D03*
D10*
X86360000Y-106680000D03*
D13*
X88900000Y-101600000D03*
X82550000Y-104140000D03*
%TD*%
D10*
%TO.C,MX15*%
X95885000Y-125730000D03*
D12*
X100965000Y-125730000D03*
X90805000Y-125730000D03*
D13*
X98425000Y-120650000D03*
X92075000Y-123190000D03*
%TD*%
D12*
%TO.C,MX16*%
X95567500Y-144780000D03*
D10*
X100647500Y-144780000D03*
D12*
X105727500Y-144780000D03*
D13*
X103187500Y-139700000D03*
X96837500Y-142240000D03*
%TD*%
D12*
%TO.C,MX17*%
X110490000Y-87630000D03*
X100330000Y-87630000D03*
D10*
X105410000Y-87630000D03*
D13*
X107950000Y-82550000D03*
X101600000Y-85090000D03*
%TD*%
D12*
%TO.C,MX18*%
X105092500Y-163830000D03*
D10*
X110172500Y-163830000D03*
D12*
X115252500Y-163830000D03*
D13*
X112712500Y-158750000D03*
X106362500Y-161290000D03*
%TD*%
D12*
%TO.C,MX19*%
X110490000Y-106680000D03*
D10*
X105410000Y-106680000D03*
D12*
X100330000Y-106680000D03*
D13*
X107950000Y-101600000D03*
X101600000Y-104140000D03*
%TD*%
D12*
%TO.C,MX20*%
X120015000Y-125730000D03*
D10*
X114935000Y-125730000D03*
D12*
X109855000Y-125730000D03*
D13*
X117475000Y-120650000D03*
X111125000Y-123190000D03*
%TD*%
D10*
%TO.C,MX21*%
X119697500Y-144780000D03*
D12*
X114617500Y-144780000D03*
X124777500Y-144780000D03*
D13*
X122237500Y-139700000D03*
X115887500Y-142240000D03*
%TD*%
D10*
%TO.C,MX22*%
X124460000Y-87630000D03*
D12*
X119380000Y-87630000D03*
X129540000Y-87630000D03*
D13*
X127000000Y-82550000D03*
X120650000Y-85090000D03*
%TD*%
D12*
%TO.C,MX23*%
X134302500Y-163830000D03*
D10*
X129222500Y-163830000D03*
D12*
X124142500Y-163830000D03*
D13*
X131762500Y-158750000D03*
X125412500Y-161290000D03*
%TD*%
D12*
%TO.C,MX24*%
X119380000Y-106680000D03*
D10*
X124460000Y-106680000D03*
D12*
X129540000Y-106680000D03*
D13*
X127000000Y-101600000D03*
X120650000Y-104140000D03*
%TD*%
D10*
%TO.C,MX25*%
X133985000Y-125730000D03*
D12*
X139065000Y-125730000D03*
X128905000Y-125730000D03*
D13*
X136525000Y-120650000D03*
X130175000Y-123190000D03*
%TD*%
D10*
%TO.C,MX26*%
X138747500Y-144780000D03*
D12*
X133667500Y-144780000D03*
X143827500Y-144780000D03*
D13*
X141287500Y-139700000D03*
X134937500Y-142240000D03*
%TD*%
D10*
%TO.C,MX27*%
X143510000Y-87630000D03*
D12*
X148590000Y-87630000D03*
X138430000Y-87630000D03*
D13*
X146050000Y-82550000D03*
X139700000Y-85090000D03*
%TD*%
D12*
%TO.C,MX28*%
X143192500Y-163830000D03*
D10*
X148272500Y-163830000D03*
D12*
X153352500Y-163830000D03*
D13*
X150812500Y-158750000D03*
X144462500Y-161290000D03*
%TD*%
D12*
%TO.C,MX29*%
X138430000Y-106680000D03*
D10*
X143510000Y-106680000D03*
D12*
X148590000Y-106680000D03*
D13*
X146050000Y-101600000D03*
X139700000Y-104140000D03*
%TD*%
D12*
%TO.C,MX30*%
X147955000Y-125730000D03*
X158115000Y-125730000D03*
D10*
X153035000Y-125730000D03*
D13*
X155575000Y-120650000D03*
X149225000Y-123190000D03*
%TD*%
D12*
%TO.C,MX31*%
X152717500Y-144780000D03*
D10*
X157797500Y-144780000D03*
D12*
X162877500Y-144780000D03*
D13*
X160337500Y-139700000D03*
X153987500Y-142240000D03*
%TD*%
D12*
%TO.C,MX32*%
X172402500Y-163830000D03*
X162242500Y-163830000D03*
D10*
X167322500Y-163830000D03*
D13*
X169862500Y-158750000D03*
X163512500Y-161290000D03*
%TD*%
D10*
%TO.C,MX33*%
X162718750Y-106680000D03*
D12*
X167798750Y-106680000D03*
X157638750Y-106680000D03*
D13*
X165258750Y-101600000D03*
X158908750Y-104140000D03*
%TD*%
D10*
%TO.C,MX34*%
X172085000Y-87630000D03*
D12*
X177165000Y-87630000D03*
X167005000Y-87630000D03*
D13*
X174625000Y-82550000D03*
X168275000Y-85090000D03*
%TD*%
D10*
%TO.C,MX35*%
X172085000Y-125730000D03*
D12*
X177165000Y-125730000D03*
X167005000Y-125730000D03*
D13*
X174625000Y-120650000D03*
X168275000Y-123190000D03*
%TD*%
D12*
%TO.C,MX36*%
X181927500Y-144780000D03*
D10*
X176847500Y-144780000D03*
D12*
X171767500Y-144780000D03*
D13*
X179387500Y-139700000D03*
X173037500Y-142240000D03*
%TD*%
D12*
%TO.C,MX38*%
X191452500Y-163830000D03*
X181292500Y-163830000D03*
D10*
X186372500Y-163830000D03*
D13*
X188912500Y-158750000D03*
X182562500Y-161290000D03*
%TD*%
D12*
%TO.C,MX39*%
X176530000Y-106680000D03*
D10*
X181610000Y-106680000D03*
D12*
X186690000Y-106680000D03*
D13*
X184150000Y-101600000D03*
X177800000Y-104140000D03*
%TD*%
D10*
%TO.C,MX40*%
X191135000Y-87630000D03*
D12*
X196215000Y-87630000D03*
X186055000Y-87630000D03*
D13*
X193675000Y-82550000D03*
X187325000Y-85090000D03*
%TD*%
D12*
%TO.C,MX41*%
X196215000Y-125730000D03*
X186055000Y-125730000D03*
D10*
X191135000Y-125730000D03*
D13*
X193675000Y-120650000D03*
X187325000Y-123190000D03*
%TD*%
D10*
%TO.C,MX42*%
X195897500Y-144780000D03*
D12*
X200977500Y-144780000D03*
X190817500Y-144780000D03*
D13*
X198437500Y-139700000D03*
X192087500Y-142240000D03*
%TD*%
D12*
%TO.C,MX43*%
X210502500Y-163830000D03*
D10*
X205422500Y-163830000D03*
D12*
X200342500Y-163830000D03*
D13*
X207962500Y-158750000D03*
X201612500Y-161290000D03*
%TD*%
D12*
%TO.C,MX44*%
X195580000Y-106680000D03*
X205740000Y-106680000D03*
D10*
X200660000Y-106680000D03*
D13*
X203200000Y-101600000D03*
X196850000Y-104140000D03*
%TD*%
D12*
%TO.C,MX45*%
X205105000Y-87630000D03*
D10*
X210185000Y-87630000D03*
D12*
X215265000Y-87630000D03*
D13*
X212725000Y-82550000D03*
X206375000Y-85090000D03*
%TD*%
D10*
%TO.C,MX46*%
X210185000Y-125730000D03*
D12*
X215265000Y-125730000D03*
X205105000Y-125730000D03*
D13*
X212725000Y-120650000D03*
X206375000Y-123190000D03*
%TD*%
D10*
%TO.C,MX47*%
X214947500Y-144780000D03*
D12*
X209867500Y-144780000D03*
X220027500Y-144780000D03*
D13*
X217487500Y-139700000D03*
X211137500Y-142240000D03*
%TD*%
D10*
%TO.C,MX48*%
X224472500Y-163830000D03*
D12*
X229552500Y-163830000D03*
X219392500Y-163830000D03*
D13*
X227012500Y-158750000D03*
X220662500Y-161290000D03*
%TD*%
D12*
%TO.C,MX49*%
X214630000Y-106680000D03*
D10*
X219710000Y-106680000D03*
D12*
X224790000Y-106680000D03*
D13*
X222250000Y-101600000D03*
X215900000Y-104140000D03*
%TD*%
D10*
%TO.C,MX50*%
X229235000Y-87630000D03*
D12*
X224155000Y-87630000D03*
X234315000Y-87630000D03*
D13*
X231775000Y-82550000D03*
X225425000Y-85090000D03*
%TD*%
D12*
%TO.C,MX51*%
X234315000Y-125730000D03*
X224155000Y-125730000D03*
D10*
X229235000Y-125730000D03*
D13*
X231775000Y-120650000D03*
X225425000Y-123190000D03*
%TD*%
D12*
%TO.C,MX52*%
X228917500Y-144780000D03*
D10*
X233997500Y-144780000D03*
D12*
X239077500Y-144780000D03*
D13*
X236537500Y-139700000D03*
X230187500Y-142240000D03*
%TD*%
D12*
%TO.C,MX53*%
X238442500Y-163830000D03*
X248602500Y-163830000D03*
D10*
X243522500Y-163830000D03*
D13*
X246062500Y-158750000D03*
X239712500Y-161290000D03*
%TD*%
D12*
%TO.C,MX54*%
X233680000Y-106680000D03*
D10*
X238760000Y-106680000D03*
D12*
X243840000Y-106680000D03*
D13*
X241300000Y-101600000D03*
X234950000Y-104140000D03*
%TD*%
D10*
%TO.C,MX55*%
X248285000Y-125730000D03*
D12*
X243205000Y-125730000D03*
X253365000Y-125730000D03*
D13*
X250825000Y-120650000D03*
X244475000Y-123190000D03*
%TD*%
D12*
%TO.C,MX56*%
X248126250Y-144780000D03*
D10*
X253206250Y-144780000D03*
D12*
X258286250Y-144780000D03*
D13*
X255746250Y-139700000D03*
X249396250Y-142240000D03*
%TD*%
D12*
%TO.C,MX57*%
X246221250Y-182880000D03*
D10*
X241141250Y-182880000D03*
D12*
X236061250Y-182880000D03*
D13*
X243681250Y-177800000D03*
X237331250Y-180340000D03*
%TD*%
D10*
%TO.C,MX58*%
X257810000Y-87630000D03*
D12*
X262890000Y-87630000D03*
X252730000Y-87630000D03*
D13*
X260350000Y-82550000D03*
X254000000Y-85090000D03*
%TD*%
D12*
%TO.C,MX59*%
X267652500Y-163830000D03*
D10*
X262572500Y-163830000D03*
D12*
X257492500Y-163830000D03*
D13*
X265112500Y-158750000D03*
X258762500Y-161290000D03*
%TD*%
D12*
%TO.C,MX60*%
X252730000Y-106680000D03*
X262890000Y-106680000D03*
D10*
X257810000Y-106680000D03*
D13*
X260350000Y-101600000D03*
X254000000Y-104140000D03*
%TD*%
D10*
%TO.C,MX61*%
X267335000Y-125730000D03*
D12*
X262255000Y-125730000D03*
X272415000Y-125730000D03*
D13*
X269875000Y-120650000D03*
X263525000Y-123190000D03*
%TD*%
D12*
%TO.C,MX62*%
X277177500Y-144780000D03*
D10*
X272097500Y-144780000D03*
D12*
X267017500Y-144780000D03*
D13*
X274637500Y-139700000D03*
X268287500Y-142240000D03*
%TD*%
D10*
%TO.C,MX63*%
X264953750Y-182880000D03*
D12*
X270033750Y-182880000D03*
X259873750Y-182880000D03*
D13*
X267493750Y-177800000D03*
X261143750Y-180340000D03*
%TD*%
D12*
%TO.C,MX64*%
X281940000Y-87630000D03*
D10*
X276860000Y-87630000D03*
D12*
X271780000Y-87630000D03*
D13*
X279400000Y-82550000D03*
X273050000Y-85090000D03*
%TD*%
D12*
%TO.C,MX65*%
X281940000Y-106680000D03*
X271780000Y-106680000D03*
D10*
X276860000Y-106680000D03*
D13*
X279400000Y-101600000D03*
X273050000Y-104140000D03*
%TD*%
D12*
%TO.C,MX66*%
X291465000Y-125730000D03*
D10*
X286385000Y-125730000D03*
D12*
X281305000Y-125730000D03*
D13*
X288925000Y-120650000D03*
X282575000Y-123190000D03*
%TD*%
D12*
%TO.C,MX67*%
X283686250Y-182880000D03*
D10*
X288766250Y-182880000D03*
D12*
X293846250Y-182880000D03*
D13*
X291306250Y-177800000D03*
X284956250Y-180340000D03*
%TD*%
D10*
%TO.C,MX68*%
X295910000Y-87630000D03*
D12*
X300990000Y-87630000D03*
X290830000Y-87630000D03*
D13*
X298450000Y-82550000D03*
X292100000Y-85090000D03*
%TD*%
D12*
%TO.C,MX69*%
X317658750Y-182880000D03*
D10*
X312578750Y-182880000D03*
D12*
X307498750Y-182880000D03*
D13*
X315118750Y-177800000D03*
X308768750Y-180340000D03*
%TD*%
D12*
%TO.C,MX70*%
X315277500Y-125730000D03*
D10*
X310197500Y-125730000D03*
D12*
X305117500Y-125730000D03*
D13*
X312737500Y-120650000D03*
X306387500Y-123190000D03*
%TD*%
D12*
%TO.C,MX71*%
X297973750Y-144780000D03*
D10*
X314953750Y-153020000D03*
X291153750Y-153020000D03*
D11*
X291153750Y-137780000D03*
D12*
X308133750Y-144780000D03*
D11*
X314953750Y-137780000D03*
D10*
X303053750Y-144780000D03*
D13*
X305593750Y-139700000D03*
X299243750Y-142240000D03*
%TD*%
D12*
%TO.C,MX72*%
X303371250Y-163830000D03*
D10*
X298291250Y-163830000D03*
X310191250Y-172070000D03*
D11*
X310191250Y-156830000D03*
D10*
X286391250Y-172070000D03*
D11*
X286391250Y-156830000D03*
D12*
X293211250Y-163830000D03*
D13*
X300831250Y-158750000D03*
X294481250Y-161290000D03*
%TD*%
D12*
%TO.C,MX73*%
X320040000Y-87630000D03*
D10*
X314960000Y-87630000D03*
D12*
X309880000Y-87630000D03*
D13*
X317500000Y-82550000D03*
X311150000Y-85090000D03*
%TD*%
D10*
%TO.C,MX74*%
X317335000Y-114920000D03*
D11*
X317335000Y-99680000D03*
D10*
X293535000Y-114920000D03*
D11*
X293535000Y-99680000D03*
D12*
X310515000Y-106680000D03*
D10*
X305435000Y-106680000D03*
D12*
X300355000Y-106680000D03*
D13*
X307975000Y-101600000D03*
X301625000Y-104140000D03*
%TD*%
D12*
%TO.C,MX75*%
X332898750Y-182880000D03*
D10*
X337978750Y-182880000D03*
D12*
X343058750Y-182880000D03*
D13*
X340518750Y-177800000D03*
X334168750Y-180340000D03*
%TD*%
D12*
%TO.C,MX76*%
X343058750Y-87630000D03*
D10*
X337978750Y-87630000D03*
D12*
X332898750Y-87630000D03*
D13*
X340518750Y-82550000D03*
X334168750Y-85090000D03*
%TD*%
D12*
%TO.C,MX77*%
X343058750Y-106680000D03*
D10*
X337978750Y-106680000D03*
D12*
X332898750Y-106680000D03*
D13*
X340518750Y-101600000D03*
X334168750Y-104140000D03*
%TD*%
D12*
%TO.C,MX78*%
X351948750Y-182880000D03*
X362108750Y-182880000D03*
D10*
X357028750Y-182880000D03*
D13*
X359568750Y-177800000D03*
X353218750Y-180340000D03*
%TD*%
D12*
%TO.C,MX79*%
X362108750Y-163830000D03*
D10*
X357028750Y-163830000D03*
D12*
X351948750Y-163830000D03*
D13*
X359568750Y-158750000D03*
X353218750Y-161290000D03*
%TD*%
D12*
%TO.C,MX80*%
X362108750Y-87630000D03*
D10*
X357028750Y-87630000D03*
D12*
X351948750Y-87630000D03*
D13*
X359568750Y-82550000D03*
X353218750Y-85090000D03*
%TD*%
D12*
%TO.C,MX81*%
X351948750Y-106680000D03*
X362108750Y-106680000D03*
D10*
X357028750Y-106680000D03*
D13*
X359568750Y-101600000D03*
X353218750Y-104140000D03*
%TD*%
D12*
%TO.C,MX82*%
X370998750Y-182880000D03*
D10*
X376078750Y-182880000D03*
D12*
X381158750Y-182880000D03*
D13*
X378618750Y-177800000D03*
X372268750Y-180340000D03*
%TD*%
D10*
%TO.C,MX83*%
X376078750Y-87630000D03*
D12*
X381158750Y-87630000D03*
X370998750Y-87630000D03*
D13*
X378618750Y-82550000D03*
X372268750Y-85090000D03*
%TD*%
D10*
%TO.C,MX84*%
X376078750Y-106680000D03*
D12*
X381158750Y-106680000D03*
X370998750Y-106680000D03*
D13*
X378618750Y-101600000D03*
X372268750Y-104140000D03*
%TD*%
D14*
%TO.C,SSD1306*%
X341312500Y-132556250D03*
D15*
X341312500Y-135096250D03*
X341312500Y-137636250D03*
X341312500Y-140176250D03*
%TD*%
D16*
%TO.C,SW1*%
X379574200Y-133426200D03*
X379574200Y-138426200D03*
D17*
X372574200Y-141526200D03*
X372574200Y-130326200D03*
D16*
X365074200Y-135926200D03*
X365074200Y-138426200D03*
D18*
X365074200Y-133426200D03*
%TD*%
D19*
%TO.C,U1*%
X140652500Y-178597500D03*
D20*
X146952500Y-180897500D03*
D19*
X140652500Y-180897500D03*
X140652500Y-183197500D03*
%TD*%
D21*
%TO.C,U3*%
X202627342Y-177313859D03*
X202980895Y-177667412D03*
X203334448Y-178020965D03*
X203688002Y-178374519D03*
X204041555Y-178728072D03*
X204395109Y-179081626D03*
X204748662Y-179435179D03*
X205102215Y-179788732D03*
X205455769Y-180142286D03*
X205809322Y-180495839D03*
X206162875Y-180849392D03*
X206516429Y-181202946D03*
X206869982Y-181556499D03*
X207223536Y-181910053D03*
X207577089Y-182263606D03*
X207930642Y-182617159D03*
D22*
X207930642Y-185339521D03*
X207577089Y-185693074D03*
X207223536Y-186046627D03*
X206869982Y-186400181D03*
X206516429Y-186753734D03*
X206162875Y-187107288D03*
X205809322Y-187460841D03*
X205455769Y-187814394D03*
X205102215Y-188167948D03*
X204748662Y-188521501D03*
X204395109Y-188875054D03*
X204041555Y-189228608D03*
X203688002Y-189582161D03*
X203334448Y-189935715D03*
X202980895Y-190289268D03*
X202627342Y-190642821D03*
D21*
X199904980Y-190642821D03*
X199551427Y-190289268D03*
X199197874Y-189935715D03*
X198844320Y-189582161D03*
X198490767Y-189228608D03*
X198137213Y-188875054D03*
X197783660Y-188521501D03*
X197430107Y-188167948D03*
X197076553Y-187814394D03*
X196723000Y-187460841D03*
X196369447Y-187107288D03*
X196015893Y-186753734D03*
X195662340Y-186400181D03*
X195308786Y-186046627D03*
X194955233Y-185693074D03*
X194601680Y-185339521D03*
D22*
X194601680Y-182617159D03*
X194955233Y-182263606D03*
X195308786Y-181910053D03*
X195662340Y-181556499D03*
X196015893Y-181202946D03*
X196369447Y-180849392D03*
X196723000Y-180495839D03*
X197076553Y-180142286D03*
X197430107Y-179788732D03*
X197783660Y-179435179D03*
X198137213Y-179081626D03*
X198490767Y-178728072D03*
X198844320Y-178374519D03*
X199197874Y-178020965D03*
X199551427Y-177667412D03*
X199904980Y-177313859D03*
%TD*%
D23*
%TO.C,C1*%
X140213000Y-175895000D03*
X142113000Y-175895000D03*
%TD*%
D24*
%TO.C,C2*%
X137795000Y-181615000D03*
X137795000Y-183515000D03*
%TD*%
D23*
%TO.C,C3*%
X129545000Y-177165000D03*
X131445000Y-177165000D03*
%TD*%
D25*
%TO.C,C4*%
X213013000Y-178519000D03*
X211113000Y-178519000D03*
%TD*%
D23*
%TO.C,C5*%
X211113000Y-171407000D03*
X213013000Y-171407000D03*
%TD*%
D24*
%TO.C,C6*%
X198247000Y-192979000D03*
X198247000Y-194879000D03*
%TD*%
%TO.C,C7*%
X202565000Y-193167000D03*
X202565000Y-195067000D03*
%TD*%
%TO.C,C8*%
X205701900Y-193205100D03*
X205701900Y-195105100D03*
%TD*%
D26*
%TO.C,C9*%
X190090161Y-184359340D03*
X190090161Y-182459340D03*
%TD*%
D24*
%TO.C,C10*%
X212064600Y-188838800D03*
X212064600Y-190738800D03*
%TD*%
D26*
%TO.C,C11*%
X202603100Y-173824900D03*
X202603100Y-171924900D03*
%TD*%
%TO.C,C12*%
X198218161Y-173813340D03*
X198218161Y-171913340D03*
%TD*%
%TO.C,C13*%
X192884161Y-176485340D03*
X192884161Y-174585340D03*
%TD*%
D27*
%TO.C,D1*%
X59593750Y-168275000D03*
X56293750Y-168275000D03*
%TD*%
%TO.C,D3*%
X50068750Y-187325000D03*
X46768750Y-187325000D03*
%TD*%
%TO.C,D4*%
X52450000Y-130968750D03*
X49150000Y-130968750D03*
%TD*%
%TO.C,D5*%
X54831250Y-149225000D03*
X51531250Y-149225000D03*
%TD*%
%TO.C,D6*%
X47687500Y-111918750D03*
X44387500Y-111918750D03*
%TD*%
%TO.C,D7*%
X46893750Y-92868750D03*
X43593750Y-92868750D03*
%TD*%
%TO.C,D9*%
X73881250Y-187325000D03*
X70581250Y-187325000D03*
%TD*%
%TO.C,D10*%
X66737500Y-111918750D03*
X63437500Y-111918750D03*
%TD*%
%TO.C,D12*%
X76262500Y-130968750D03*
X72962500Y-130968750D03*
%TD*%
%TO.C,D14*%
X81025000Y-149225000D03*
X77725000Y-149225000D03*
%TD*%
%TO.C,D15*%
X85787500Y-92868750D03*
X82487500Y-92868750D03*
%TD*%
%TO.C,D17*%
X97693750Y-187325000D03*
X94393750Y-187325000D03*
%TD*%
%TO.C,D19*%
X90550000Y-168275000D03*
X87250000Y-168275000D03*
%TD*%
%TO.C,D20*%
X85787500Y-111918750D03*
X82487500Y-111918750D03*
%TD*%
%TO.C,D22*%
X95312500Y-130968750D03*
X92012500Y-130968750D03*
%TD*%
%TO.C,D24*%
X100075000Y-149225000D03*
X96775000Y-149225000D03*
%TD*%
%TO.C,D25*%
X104837500Y-92868750D03*
X101537500Y-92868750D03*
%TD*%
%TO.C,D27*%
X109600000Y-168275000D03*
X106300000Y-168275000D03*
%TD*%
%TO.C,D28*%
X104837500Y-111918750D03*
X101537500Y-111918750D03*
%TD*%
%TO.C,D30*%
X114362500Y-130968750D03*
X111062500Y-130968750D03*
%TD*%
%TO.C,D32*%
X119125000Y-149225000D03*
X115825000Y-149225000D03*
%TD*%
%TO.C,D33*%
X123887500Y-92868750D03*
X120587500Y-92868750D03*
%TD*%
%TO.C,D35*%
X128650000Y-168275000D03*
X125350000Y-168275000D03*
%TD*%
%TO.C,D36*%
X123887500Y-111918750D03*
X120587500Y-111918750D03*
%TD*%
%TO.C,D38*%
X133412500Y-130968750D03*
X130112500Y-130968750D03*
%TD*%
%TO.C,D40*%
X138175000Y-149225000D03*
X134875000Y-149225000D03*
%TD*%
%TO.C,D41*%
X142937500Y-92868750D03*
X139637500Y-92868750D03*
%TD*%
%TO.C,D43*%
X147700000Y-168275000D03*
X144400000Y-168275000D03*
%TD*%
%TO.C,D44*%
X142937500Y-111918750D03*
X139637500Y-111918750D03*
%TD*%
%TO.C,D46*%
X152462500Y-130968750D03*
X149162500Y-130968750D03*
%TD*%
%TO.C,D48*%
X157225000Y-149225000D03*
X153925000Y-149225000D03*
%TD*%
%TO.C,D50*%
X166750000Y-168275000D03*
X163450000Y-168275000D03*
%TD*%
%TO.C,D51*%
X161987500Y-111918750D03*
X158687500Y-111918750D03*
%TD*%
%TO.C,D52*%
X171512500Y-92868750D03*
X168212500Y-92868750D03*
%TD*%
%TO.C,D54*%
X171512500Y-130968750D03*
X168212500Y-130968750D03*
%TD*%
%TO.C,D56*%
X176275000Y-149225000D03*
X172975000Y-149225000D03*
%TD*%
%TO.C,D58*%
X169131250Y-187325000D03*
X165831250Y-187325000D03*
%TD*%
%TO.C,D60*%
X185800000Y-168275000D03*
X182500000Y-168275000D03*
%TD*%
%TO.C,D61*%
X181037500Y-111918750D03*
X177737500Y-111918750D03*
%TD*%
%TO.C,D62*%
X190562500Y-92868750D03*
X187262500Y-92868750D03*
%TD*%
%TO.C,D64*%
X190562500Y-130968750D03*
X187262500Y-130968750D03*
%TD*%
%TO.C,D66*%
X195325000Y-149225000D03*
X192025000Y-149225000D03*
%TD*%
%TO.C,D68*%
X204850000Y-168275000D03*
X201550000Y-168275000D03*
%TD*%
%TO.C,D69*%
X200087500Y-111918750D03*
X196787500Y-111918750D03*
%TD*%
%TO.C,D70*%
X209612500Y-92868750D03*
X206312500Y-92868750D03*
%TD*%
%TO.C,D72*%
X209612500Y-130968750D03*
X206312500Y-130968750D03*
%TD*%
%TO.C,D73*%
X214375000Y-149225000D03*
X211075000Y-149225000D03*
%TD*%
%TO.C,D76*%
X223106250Y-168275000D03*
X219806250Y-168275000D03*
%TD*%
%TO.C,D77*%
X219137500Y-111918750D03*
X215837500Y-111918750D03*
%TD*%
%TO.C,D78*%
X228662500Y-92868750D03*
X225362500Y-92868750D03*
%TD*%
%TO.C,D80*%
X228662500Y-130968750D03*
X225362500Y-130968750D03*
%TD*%
%TO.C,D82*%
X233425000Y-149225000D03*
X230125000Y-149225000D03*
%TD*%
%TO.C,D84*%
X242950000Y-168275000D03*
X239650000Y-168275000D03*
%TD*%
%TO.C,D85*%
X238187500Y-111918750D03*
X234887500Y-111918750D03*
%TD*%
%TO.C,D87*%
X247712500Y-130968750D03*
X244412500Y-130968750D03*
%TD*%
%TO.C,D89*%
X252475000Y-149225000D03*
X249175000Y-149225000D03*
%TD*%
%TO.C,D91*%
X240568750Y-187325000D03*
X237268750Y-187325000D03*
%TD*%
%TO.C,D92*%
X257237500Y-92868750D03*
X253937500Y-92868750D03*
%TD*%
%TO.C,D94*%
X262000000Y-168275000D03*
X258700000Y-168275000D03*
%TD*%
%TO.C,D95*%
X257237500Y-111918750D03*
X253937500Y-111918750D03*
%TD*%
%TO.C,D97*%
X266762500Y-130968750D03*
X263462500Y-130968750D03*
%TD*%
%TO.C,D99*%
X271525000Y-149225000D03*
X268225000Y-149225000D03*
%TD*%
%TO.C,D101*%
X264381250Y-187325000D03*
X261081250Y-187325000D03*
%TD*%
%TO.C,D102*%
X276225000Y-92868750D03*
X272925000Y-92868750D03*
%TD*%
%TO.C,D103*%
X276287500Y-111918750D03*
X272987500Y-111918750D03*
%TD*%
%TO.C,D105*%
X285812500Y-130968750D03*
X282512500Y-130968750D03*
%TD*%
%TO.C,D107*%
X288193750Y-187325000D03*
X284893750Y-187325000D03*
%TD*%
%TO.C,D108*%
X295337500Y-92868750D03*
X292037500Y-92868750D03*
%TD*%
%TO.C,D110*%
X312006250Y-187325000D03*
X308706250Y-187325000D03*
%TD*%
%TO.C,D111*%
X309625000Y-130968750D03*
X306325000Y-130968750D03*
%TD*%
%TO.C,D113*%
X302481250Y-149225000D03*
X299181250Y-149225000D03*
%TD*%
%TO.C,D115*%
X297718750Y-168275000D03*
X294418750Y-168275000D03*
%TD*%
%TO.C,D116*%
X314387500Y-92868750D03*
X311087500Y-92868750D03*
%TD*%
%TO.C,D117*%
X304862500Y-111918750D03*
X301562500Y-111918750D03*
%TD*%
%TO.C,D119*%
X337406250Y-187325000D03*
X334106250Y-187325000D03*
%TD*%
%TO.C,D120*%
X337406250Y-92868750D03*
X334106250Y-92868750D03*
%TD*%
%TO.C,D121*%
X337406250Y-111918750D03*
X334106250Y-111918750D03*
%TD*%
%TO.C,D123*%
X356456250Y-187325000D03*
X353156250Y-187325000D03*
%TD*%
%TO.C,D125*%
X356456250Y-168275000D03*
X353156250Y-168275000D03*
%TD*%
%TO.C,D126*%
X356456250Y-92868750D03*
X353156250Y-92868750D03*
%TD*%
%TO.C,D127*%
X356456250Y-111918750D03*
X353156250Y-111918750D03*
%TD*%
%TO.C,D129*%
X375506250Y-187325000D03*
X372206250Y-187325000D03*
%TD*%
%TO.C,D130*%
X375506250Y-92868750D03*
X372206250Y-92868750D03*
%TD*%
%TO.C,D131*%
X375506250Y-111918750D03*
X372206250Y-111918750D03*
%TD*%
D28*
%TO.C,F1*%
X75317000Y-90043000D03*
X72517000Y-90043000D03*
%TD*%
D14*
%TO.C,J1*%
X111633000Y-187574000D03*
D15*
X111633000Y-185034000D03*
X111633000Y-182494000D03*
X111633000Y-179954000D03*
X111633000Y-177414000D03*
%TD*%
D29*
%TO.C,R1*%
X73344400Y-81178400D03*
X75169400Y-81178400D03*
%TD*%
D30*
%TO.C,R2*%
X60983500Y-81407000D03*
X59158500Y-81407000D03*
%TD*%
D31*
%TO.C,R5*%
X225679000Y-179808500D03*
X225679000Y-181633500D03*
%TD*%
%TO.C,R6*%
X221869000Y-180062500D03*
X221869000Y-181887500D03*
%TD*%
D30*
%TO.C,R7*%
X191183900Y-190906400D03*
X189358900Y-190906400D03*
%TD*%
%TO.C,R8*%
X191135000Y-188849000D03*
X189310000Y-188849000D03*
%TD*%
D32*
%TO.C,S1*%
X133677600Y-179900100D03*
X127677600Y-179900100D03*
X133677600Y-183650100D03*
X127677600Y-183650100D03*
%TD*%
D33*
%TO.C,U2*%
X68437000Y-88023000D03*
D34*
X68437000Y-89723000D03*
X66437000Y-89723000D03*
X66437000Y-87823000D03*
%TD*%
D35*
%TO.C,USB1*%
X69831700Y-83445000D03*
X64051700Y-83445000D03*
D36*
X63716700Y-84890000D03*
X64491700Y-84890000D03*
D37*
X65191700Y-84890000D03*
X65691700Y-84890000D03*
X66191700Y-84890000D03*
X66691700Y-84890000D03*
X67191700Y-84890000D03*
X67691700Y-84890000D03*
X68191700Y-84890000D03*
X68691700Y-84890000D03*
D36*
X69391700Y-84890000D03*
X70166700Y-84890000D03*
%TD*%
D38*
%TO.C,Y1*%
X211279000Y-176063000D03*
X211279000Y-173863000D03*
X212979000Y-173863000D03*
X212979000Y-176063000D03*
%TD*%
D39*
%TO.C,JP1*%
X188312161Y-171375340D03*
D40*
X188312161Y-172675340D03*
D41*
X188312161Y-173975340D03*
%TD*%
M02*
